<svg xmlns="http://www.w3.org/2000/svg" width="860" height="440" font-family="sans-serif" font-size="13">
<rect width="860" height="440" fill="white"/>
<text x="430.0" y="24" text-anchor="middle" font-size="16" font-weight="bold">Speedup vs processes</text>
<line x1="64" y1="388.0" x2="560" y2="388.0" stroke="#e6e6e6"/>
<text x="56" y="392.0" text-anchor="end" fill="#444">0</text>
<line x1="64" y1="309.8" x2="560" y2="309.8" stroke="#e6e6e6"/>
<text x="56" y="313.8" text-anchor="end" fill="#444">2</text>
<line x1="64" y1="231.6" x2="560" y2="231.6" stroke="#e6e6e6"/>
<text x="56" y="235.6" text-anchor="end" fill="#444">4</text>
<line x1="64" y1="153.5" x2="560" y2="153.5" stroke="#e6e6e6"/>
<text x="56" y="157.5" text-anchor="end" fill="#444">6</text>
<line x1="64" y1="75.3" x2="560" y2="75.3" stroke="#e6e6e6"/>
<text x="56" y="79.3" text-anchor="end" fill="#444">8</text>
<line x1="64.0" y1="388" x2="64.0" y2="393" stroke="#444"/>
<text x="64.0" y="408" text-anchor="middle" fill="#444">1</text>
<line x1="134.9" y1="388" x2="134.9" y2="393" stroke="#444"/>
<text x="134.9" y="408" text-anchor="middle" fill="#444">2</text>
<line x1="276.6" y1="388" x2="276.6" y2="393" stroke="#444"/>
<text x="276.6" y="408" text-anchor="middle" fill="#444">4</text>
<line x1="560.0" y1="388" x2="560.0" y2="393" stroke="#444"/>
<text x="560.0" y="408" text-anchor="middle" fill="#444">8</text>
<line x1="64" y1="44" x2="64" y2="388" stroke="#444"/>
<line x1="64" y1="388" x2="560" y2="388" stroke="#444"/>
<text x="312.0" y="428" text-anchor="middle" fill="#444">processes (np)</text>
<text x="16" y="216.0" text-anchor="middle" fill="#444" transform="rotate(-90 16 216.0)">speedup (T_seq / T_par)</text>
<polyline points="64.0,348.9 134.9,309.8 276.6,231.6 560.0,75.3" fill="none" stroke="#888" stroke-dasharray="6 4"/>
<polyline points="64.0,361.8 134.9,329.9 276.6,264.2 560.0,193.3" fill="none" stroke="#1f77b4" stroke-width="2"/>
<circle cx="64.0" cy="361.8" r="3.5" fill="#1f77b4"/>
<circle cx="134.9" cy="329.9" r="3.5" fill="#1f77b4"/>
<circle cx="276.6" cy="264.2" r="3.5" fill="#1f77b4"/>
<circle cx="560.0" cy="193.3" r="3.5" fill="#1f77b4"/>
<polyline points="64.0,353.2 134.9,304.3 276.6,234.7 560.0,160.1" fill="none" stroke="#d62728" stroke-width="2"/>
<circle cx="64.0" cy="353.2" r="3.5" fill="#d62728"/>
<circle cx="134.9" cy="304.3" r="3.5" fill="#d62728"/>
<circle cx="276.6" cy="234.7" r="3.5" fill="#d62728"/>
<circle cx="560.0" cy="160.1" r="3.5" fill="#d62728"/>
<line x1="578" y1="52" x2="600" y2="52" stroke="#1f77b4" stroke-width="2"/>
<text x="606" y="56" fill="#333" font-size="12">large  (2000×2000, K=200000, T=500)</text>
<line x1="578" y1="74" x2="600" y2="74" stroke="#d62728" stroke-width="2"/>
<text x="606" y="78" fill="#333" font-size="12">medium  (1000×1000, K=100000, T=500)</text>
<line x1="578" y1="96" x2="600" y2="96" stroke="#888" stroke-width="2" stroke-dasharray="6 4"/>
<text x="606" y="100" fill="#333" font-size="12">ideal</text>
</svg>